<svg viewBox="0 0 100 100" preserveAspectRatio="xMidYMid meet" xmlns="http://www.w3.org/2000/svg" xmlns:xlink="http://www.w3.org/1999/xlink" width="500" height="500"><circle cx="25" cy="25" r="7.0710678118654755"></circle><path fill="none" stroke="#000" stroke-width="0.3" d="M 26.213913810406908 25 L 26.213913810406908 25 L 26.207849297643392 25.121189163207692 L 26.189716353959717 25.241167444356424 L 26.15969615773522 25.358736060120503 L 26.118088660847214 25.472720303754233 L 26.065309591650998 25.581981282373413 L 26.001886301159534 25.685427296396547 L 25.928452493926464 25.78202474744623 L 25.845741896279673 25.870808465722444 L 25.75458092517036 25.950891353660165 L 25.655880430888033 26.021473249515005 L 25.550626596145516 26.081848922314855 L 25.43987108246727 26.131415118294644 L 25.324720522335056 26.16967658840855 L 25.206325462082006 26.196251036694747 L 25.085868866013964 26.210872940050315 L 24.96455429662118 26.213396201250273 L 24.84359388897977 26.203795608702798 L 24.724196239498685 26.182167088355087 L 24.607554330023927 26.14872674523302 L 24.494833607958277 26.10380870419116 L 24.387160341496102 26.047861771447664 L 24.28561036632384 25.98144495026092 L 24.191198336225455 25.905221855553734 L 24.10486758499722 25.819954083292416 L 24.027480700968255 25.726493600871624 L 23.959810908303076 25.62577423453778 L 23.902534341201335 25.518802338905893 L 23.856223288188396 25.406646741796912 L 23.821340473997562 25.29042806486344 L 23.79823443617751 25.171307526708606 L 23.787136042620286 25.050475340373637 L 23.788156184805683 24.929138821122585 L 23.801284669810194 24.808510323347285 L 23.826390322151358 24.689795127123027 L 23.863222294449802 24.574179395448457 L 23.911412573813354 24.46281832249699 L 23.970479658900203 24.35682459129848 L 24.03983337092114 24.25725725617819 L 24.118780750510943 24.16511116103606 L 24.206532981549287 24.0813069991953 L 24.302213272750667 24.006682114139046 L 24.404865618273092 23.941982133051077 L 24.513464349812466 23.887853516755456 L 24.62692438474121 23.844837100493663 L 24.744112067895212 23.81336269007765 L 24.863856498681503 23.79374476741224 L 24.984961230329912 23.786179348295878 L 25.10621622439371 23.79074202389558 L 25.226409941053777 23.807387205464977 L 25.344341444424014 23.83594857985199 L 25.458832401905713 23.876140771244884 L 25.568738857697397 23.927562192553026 L 25.672962662823043 23.989699057932373 L 25.770462447473637 24.06193051636377 L 25.8602640260301 24.143534854991113 L 25.941470130803953 24.233696710237652 L 26.01326937723946 24.331515214649304 L 26.074944370999916 24.436012998064488 L 26.125878875934706 24.546145953173696 L 26.165563971307236 24.66081366789459 L 26.193603136762686 24.778870420325788 L 26.20971621422834 24.89913662642137 Z"></path><path fill="none" stroke="#000" stroke-width="0.2722222222222222" d="M 32.23429987956041 25 L 32.23429987956041 25 L 32.19815851303293 25.722224874024253 L 32.09009552603808 26.437233515843058 L 31.911190648221037 27.137881795457798 L 31.663231437982866 27.817169066862085 L 31.34869542178784 28.46830811618257 L 30.970725339538003 29.084792977276397 L 30.533097743354894 29.660463937194315 L 30.040185263519128 30.189569081996343 L 29.49691291859402 30.666821767974533 L 28.908708906268096 31.087453444049345 L 28.281450366598126 31.44726129755579 L 27.62140465956838 31.7426502473583 L 26.9351667437014 31.970668864713048 L 26.229593281412438 32.12903886296836 L 25.5117341295051 32.216177861451825 L 24.788761899332563 32.23121519609492 L 24.067900290435862 32.17400061882059 L 23.356351913725923 32.04510579877232 L 22.661226325376216 31.845818610385066 L 21.98946899048756 31.57813026536962 L 21.347791886296704 31.244715417183365 L 20.742606438318482 30.848905436777084 L 20.179959459501376 30.394655126637613 L 19.665472732471358 29.886503205708678 L 19.204286838538223 29.329526960011506 L 18.801009794706353 28.72929151208124 L 18.45967101189205 28.09179421610213 L 18.183681034381596 27.42340473432702 L 17.975797462800116 26.730801393517613 L 17.838097401077686 26.02090445731105 L 17.771956702713442 25.300806981233187 L 17.77803622370223 24.577703941232407 L 17.856275219479958 23.858820343858312 L 18.005891951863187 23.15133903638455 L 18.225391499918658 22.462328938173158 L 18.512580696719102 21.798674410369017 L 18.864590042742222 21.167006469638924 L 19.27790237696137 20.57363653324499 L 19.748388019155925 20.024493357449643 L 20.27134603231095 19.525063799342828 L 20.841551192825943 19.08033799397969 L 21.453306199221796 18.694759494600603 L 22.100498597693928 18.372180874116065 L 22.776661855730165 18.115825231471636 L 23.47503997356607 17.928253987508715 L 24.188654987901337 17.811341292094166 L 24.91037669340249 17.766255298234373 L 25.63299388535764 17.793446490276533 L 26.349286411650255 17.892643182817977 L 27.05209731413245 18.0628542352969 L 27.734404338585016 18.302378955141222 L 28.389390098760344 18.608824090526603 L 29.01051019345227 18.97912774295757 L 29.591558595989632 19.409589960745144 L 30.12672966280335 19.895909707701083 L 30.610676141497848 20.43322783766974 L 31.03856259882945 21.016175645510224 L 31.40611373475696 21.638928509423522 L 31.709657099826444 22.29526408864814 L 31.94615978907222 22.97862449503216 L 32.113258745800735 23.682181817283915 L 32.209284372471934 24.398906343204594 Z"></path><path fill="none" stroke="#000" stroke-width="0.24444444444444444" d="M 35.755999969879255 25 L 35.755999969879255 25 L 35.70226477176018 26.073808226446225 L 35.54159608174006 27.13688731604761 L 35.27559924825957 28.17861533394808 L 34.90693202375199 29.188583678142273 L 34.43927800925941 30.156701078786153 L 33.87730984910878 31.07329442682955 L 33.22664254339434 31.929205424524287 L 32.493777344752786 32.71588209210797 L 31.68603679999591 33.42546421635882 L 30.811491585643402 34.050861887248004 L 29.878879868390857 34.58582633797697 L 28.897519996236618 35.02501238058977 L 27.877217392628797 35.36403181332424 L 26.828166583915454 35.5994972660734 L 25.76084933900715 35.72905604586792 L 24.685929939006847 35.75141364420653 L 23.614148623238226 35.66634667135707 L 22.556214276324646 35.47470508839285 L 21.522697428553872 35.178403714662565 L 20.523924638633584 34.780403095548316 L 19.569875314130268 34.28467992167477 L 18.670082000527586 33.696187295131 L 17.833535135182935 33.0208052397116 L 17.068593217849205 32.26528194966272 L 16.382899295308217 31.437166363955722 L 15.783304594573725 30.544732739784376 L 15.275800067695812 29.596897978922065 L 14.865456532148349 28.60313253298681 L 14.556374004896984 27.573365777819212 L 14.351640736384917 26.51788680244128 L 14.2533023537553 25.447241603880016 L 14.262341421621018 24.372127715051207 L 14.378667624603878 23.303287318546623 L 14.601118669736005 22.251399914296474 L 14.927471899706974 21.226975613536283 L 15.354466500920955 20.240250125249595 L 15.877836084468266 19.30108248434729 L 16.492351314473083 18.418856543449714 L 17.19187215788893 17.60238721253319 L 17.969409233679237 16.859832383263367 L 18.8171936484023 16.198611418038308 L 19.726754620426465 15.625331018171952 L 20.68900411718016 15.14571921191846 L 21.694327659769215 14.764568121907327 L 22.73268038767186 14.485686083838152 L 23.793687423664668 14.31185959484917 L 24.866747536166294 14.244825471758965 L 25.94113906323914 14.285253497366917 L 27.006127039891314 14.432739728204881 L 28.051070458298327 14.68581053060679 L 29.065528589235825 15.04193730476913 L 30.03936530239476 15.49756174968433 L 30.96285034324486 16.04813141650822 L 31.826756554521527 16.688145195124022 L 32.622452070931104 17.411208279416236 L 33.341986565895596 18.2100960620595 L 33.97817068858781 19.07682632040683 L 34.5246478975483 20.002738972219746 L 34.975957973146485 20.978582604347373 L 35.32759157429028 21.9946069097885 L 35.57603529427165 23.04066010953615 L 35.718806765565134 24.106290385797656 Z"></path><path fill="none" stroke="#000" stroke-width="0.21666666666666667" d="M 38.25468594871391 25 L 38.25468594871391 25 L 38.18846772842247 26.323260584840813 L 37.99047469811644 27.633299587329695 L 37.662685138706856 28.91702753079509 L 37.20837421511851 30.161617829969934 L 36.63208125192468 31.35463494999173 L 35.93956437791647 32.48415865815625 L 35.13774299278333 33.5389031269424 L 34.234628630758586 34.508329698270245 L 33.23924491201768 35.3827521822889 L 32.16153738164816 36.153433638583685 L 31.01227413705073 36.81267367279673 L 29.80293823666949 37.35388537642196 L 28.54561296506775 37.771661141017546 L 27.252861100742873 38.06182668924197 L 25.93759939299624 38.221482782853336 L 24.612969502043946 38.24903419093958 L 23.292206691891952 38.14420562893838 L 21.988507587953166 37.90804450918955 L 20.71489832072851 37.54291047553711 L 19.48410437301684 37.05245182654808 L 18.30842343109731 36.44156906291906 L 17.19960251031312 35.71636592329325 L 16.168720582777294 34.8840883977215 L 15.2260778799455 33.95305232812494 L 14.381092976108189 32.93256031915139 L 13.642208681109626 31.8328087896247 L 13.016807682582762 30.664786093298368 L 12.511138780574797 29.440162726857125 L 12.130254451602674 28.171174722171784 L 11.877960365977865 26.8705013879135 L 11.756777362806597 25.551138622092733 L 11.76791626259878 24.226269061342226 L 11.911265769149722 22.909130364369343 L 12.185393581575015 21.612882945646067 L 12.58756070538751 20.35047848089786 L 13.113748819624849 19.134530498241045 L 13.758700426584241 17.977188347979368 L 14.5159713830016 16.890015810311787 L 15.377995287800907 15.883875553863225 L 16.336159083072616 14.968820599490359 L 17.380889112901215 14.153993873820331 L 18.5017467801705 13.44753685615013 L 19.68753284557539 12.856508231476674 L 20.926399326719125 12.38681336244961 L 22.20596787923693 12.04314528493978 L 23.513453477121168 11.828937816776092 L 24.83579215647507 11.746331248172869 L 26.15977154632157 11.796150956657488 L 27.47216288224673 11.977899160170981 L 28.75985318384088 12.28975989074181 L 30.00997627526432 12.728617139037558 L 31.21004133982329 13.290085988500179 L 32.3480577240815 13.968556427982767 L 33.41265474450563 14.757249405126519 L 34.39319529957659 15.648284560411051 L 35.27988215219174 16.63275896510183 L 36.06385582041944 17.700836076371147 L 36.737283098514006 18.841844020782556 L 37.29343532371818 20.044382224122582 L 37.7267556068372 21.29643532216973 L 38.03291435483879 22.585493214242042 L 38.20885253071553 23.898676059987817 Z"></path><path fill="none" stroke="#000" stroke-width="0.18888888888888888" d="M 40.192817366442924 25 L 40.192817366442924 25 L 40.11691656191903 26.516750866183262 L 39.8899725240967 28.0183468590828 L 39.514252802784114 29.4897845278992 L 38.99351146524021 30.91636175383828 L 38.33295158677552 32.28382464882219 L 37.539173263343606 33.57850997562738 L 36.620107665563964 34.78748166643449 L 35.584937793086915 35.89866007574187 L 34.444006721096585 36.900942676190496 L 33.208714255722626 37.78431499134724 L 31.891403030945664 38.53995065704312 L 30.50523518507847 39.160299611486465 L 29.064060849030767 39.639163532984554 L 27.582279760379464 39.97175777152516 L 26.07469738595065 40.15475915541783 L 24.556376990489138 40.1863391953269 L 23.042489129496392 40.06618235393259 L 21.54816007005465 39.79548919867554 L 20.088320654166345 39.37696440608381 L 18.677557114716286 38.81478973753907 L 17.32996533465422 38.1145822564992 L 16.059010005591915 37.283338204656914 L 14.877390093055386 36.32936309780547 L 13.796911952619086 35.26218873987029 L 12.828371364703667 34.09247798427491 L 11.981445666706627 32.83191819423428 L 11.264597060245936 31.493104466484812 L 10.684988059638707 30.089413785241206 L 10.248409926425744 28.63487136379199 L 9.959224805000567 27.144010509204495 L 9.820322137504563 25.631727410324675 L 9.833089793476235 24.11313229998221 L 9.997400202717541 22.60339847853884 L 10.311611629933145 21.117610707286772 L 10.772584578406793 19.670614486500217 L 11.375713158814733 18.276867724103923 L 12.114971109749336 16.950296277036323 L 12.982972010131048 15.704154808690294 L 13.971043081886208 14.550894352697954 L 15.069311845478705 13.502037906318353 L 16.266804762462115 12.568065296457869 L 17.551556879448462 11.758308468703929 L 18.910731377967416 11.08085824560943 L 20.330747835713126 10.54248348586826 L 21.79741791763483 10.148563452116722 L 23.29608714109064 9.903034063119406 L 24.811781298593967 9.808348567369952 L 26.329356075144908 9.86545303104302 L 27.8336483652197 10.073776885213817 L 29.30962777750883 10.431238626794181 L 30.742546813618635 10.93426661622338 L 32.11808822020036 11.577834764109985 L 33.42250804221298 12.355512750255661 L 34.64277294797882 13.259530273289 L 35.766690453925406 14.280854688948319 L 36.78303074785104 15.409281261277316 L 37.681638893496284 16.633535124973513 L 38.45353629531019 17.94138394011538 L 39.09101040960918 19.319760113659356 L 39.58769180576414 20.75489136650998 L 39.938617807445695 22.23243834158009 L 40.14028207804577 23.737637877906874 Z"></path><path fill="none" stroke="#000" stroke-width="0.1611111111111111" d="M 41.77638603903276 25 L 41.77638603903276 25 L 41.692573987149714 26.67484393726279 L 41.44197525381842 28.332953387534246 L 41.02709373874539 29.957761069285375 L 40.452074800887644 31.533032441250125 L 39.722663839396255 33.04302791259531 L 38.846148887487246 34.4726601077094 L 37.83128779282278 35.80764461427238 L 36.688220711992244 37.03464270838187 L 35.42836879341957 38.14139463067319 L 34.064320061023466 39.116842081782345 L 32.60970363884347 39.951238713217904 L 31.079053573337728 40.63624750965343 L 29.487663613995146 41.16502408962874 L 27.851434403245886 41.53228509234701 L 26.18671460249829 41.73436096726943 L 24.51013754171823 41.76923263905118 L 22.838455024694316 41.63655168147486 L 21.188369950551888 41.33764379881008 L 19.576369423906165 40.87549557981462 L 18.018560021162866 40.25472465672678 L 16.53050685893087 39.48153356741047 L 15.127078072522227 38.56364778164716 L 13.822296258458852 37.51023851079548 L 12.629198365323344 36.331831072078984 L 11.559705432878182 35.040199723095604 L 10.624503480976998 33.64825001732783 L 9.832936738386524 32.1698898561183 L 9.192914278341547 30.619890525516915 L 8.710830993699538 29.013739106473388 L 8.391503701285096 27.367483733043727 L 8.238123013848455 25.697573244739566 L 8.252221460517564 24.02069283516103 L 8.433658174273639 22.35359733905765 L 8.780620299447833 20.712943823557993 L 9.289641105175827 19.115125156260984 L 9.9556346238267 17.57610621312162 L 10.771946468310283 16.111264362687734 L 11.730420320513312 14.735235820516511 L 12.82147942653391 13.461769408946772 L 14.034222284440899 12.303589183410896 L 15.356531568477573 11.27226729787895 L 16.77519520137517 10.378108379721477 L 18.276038365061623 9.630046569279067 L 19.844065130758175 9.0355562528853 L 21.463608293342716 8.600577381269215 L 23.1184859128845 8.329456119531095 L 24.792162999238872 8.22490142169746 L 26.46791672420307 8.287957963747868 L 28.12900351048779 8.51799570555788 L 29.758826328006762 8.912716186051696 L 31.34110052591513 9.468175488665468 L 32.86001654345771 10.178823647657905 L 34.30039787387409 11.037560101533414 L 35.64785270303752 12.035804639505393 L 36.88891770770435 13.163583132126204 L 38.011192576589494 14.409627189491587 L 39.0034639101778 15.761486751267748 L 39.85581726130534 17.20565448357878 L 40.55973619703823 18.727700739821813 L 41.10818739205526 20.312417736926072 L 41.49569090330971 21.94397150649428 L 41.718374923808724 23.60606010258088 Z"></path><path fill="none" stroke="#000" stroke-width="0.13333333333333333" d="M 43.11527427433203 25 L 43.11527427433203 25 L 43.02477335811423 26.808509724300958 L 42.754174864700076 28.598949417250534 L 42.30618252478777 30.35342959727745 L 41.68527252975115 32.05442007837692 L 40.89764880701507 33.6849251259345 L 39.9511810324633 35.228653272488295 L 38.85532599923853 36.67018009668662 L 37.62103312859123 37.995102339007516 L 36.26063506688192 39.19018181436676 L 34.78772446185539 40.243477683687324 L 33.21701814939755 41.14446576281628 L 31.564210107776006 41.88414367669404 L 29.84581464859694 42.455120808110124 L 28.07900141126245 42.8516921423074 L 26.281423809609173 43.069895269603606 L 24.471042644832675 43.107549976479156 L 22.665946647098956 42.964280029549954 L 20.88417173893196 42.64151693476696 L 19.143520826237623 42.14248563428196 L 17.46138591755289 41.47217228389158 L 15.854574348845457 40.637274433016785 L 14.339140850168569 39.64613410500298 L 12.93022713210529 38.50865444638024 L 11.641910594801553 37.23620077789675 L 10.487063671237271 35.841487035990724 L 9.477225210131056 34.33844873934022 L 8.622485183578068 32.74210374976698 L 7.9313838713841385 31.06840221872532 L 7.4108265294129865 29.334067218661225 L 7.066014394552209 27.55642765160042 L 6.900392715673593 25.753245104487448 L 6.91561632984525 23.942536381280167 L 7.1115331277466325 22.142393485000134 L 7.486185573494595 20.370802848418855 L 8.035830263694855 18.645465619567045 L 8.754975330291309 16.983620797714725 L 9.636435313496282 15.401872986988982 L 10.671402956529521 13.916026488658279 L 11.849537204816654 12.540927389778384 L 13.159066530388195 11.290315225997979 L 14.586906549095884 10.176685700660135 L 16.11879075545395 9.21116583186505 L 17.73941306884606 8.403402774983288 L 19.43258076682331 7.76146743146824 L 21.181376277434342 7.291773807076705 L 22.96832621401207 6.999014925243525 L 24.775575963477326 6.886115935942762 L 26.585068083730793 6.954204888556063 L 28.378722727645467 7.202601460776133 L 30.138618290922754 7.628823756162337 L 31.847170478838514 8.228613102429534 L 33.48730800270336 8.995976602693826 L 35.04264315053621 9.923247014517216 L 36.497635527665366 11.001159358459612 L 37.837747331215105 12.218943490690787 L 39.0495886070264 13.564431714707409 L 40.12105103765283 15.024180356934373 L 41.041428924665965 16.583604091467294 L 41.80152615645524 18.22712167182768 L 42.393748092735365 19.93831161362724 L 42.81217744768156 21.700076272611707 L 43.05263341349358 23.494812678670485 Z"></path><path fill="none" stroke="#000" stroke-width="0.10555555555555554" d="M 44.275072017867416 25 L 44.275072017867416 25 L 44.178776943812004 26.924296295657378 L 43.890853870194796 28.82936565881633 L 43.414179629192674 30.696173266132384 L 42.75351699225416 32.50606659307778 L 41.915467082061525 34.24096178380089 L 40.908403416294945 35.88352433903609 L 39.74238824221176 37.41734231669048 L 38.42907199799804 38.82709031454415 L 36.981576905441344 40.09868259660327 L 35.41436585702822 41.219413833118026 L 33.74309790750334 42.17808604803767 L 31.984471813770604 42.96512050548561 L 30.156059186434096 43.572653417322044 L 28.276128920073305 43.99461451551558 L 26.36346465648738 44.226787704254846 L 24.437177104755328 44.26685318578423 L 22.516513093348046 44.114410639056175 L 20.620663262180404 43.77098321960678 L 18.768570316080798 43.240002340689166 L 16.978739755546123 42.526773387726536 L 15.26905497589791 41.63842270865476 L 13.656598582307762 40.58382640980941 L 12.157481706053213 39.37352166880538 L 10.78668302741964 38.01960145054121 L 9.557899113678154 36.53559367829128 L 8.483407567512899 34.93632606716815 L 7.573944353273475 33.237777970494605 L 6.838596526767997 31.45692071938723 L 6.284711440405232 29.61154805082596 L 5.9178233308780435 27.720098318515944 L 5.741598022899751 25.801470262952282 L 5.7577963014953255 23.874834181452044 L 5.966256318819486 21.95944038488037 L 6.364895211286843 20.07442685490759 L 6.949729910856362 18.23862802362256 L 7.714916942530596 16.470386586113072 L 8.65281081042626 14.787370226319812 L 9.754040389041831 13.206395087378588 L 11.007602556445889 11.743257750276808 L 12.400972133834278 10.412577399637891 L 13.920227032976493 9.227649753660973 L 15.550187361119201 8.200314217699656 L 17.274567093456852 7.340835588837283 L 19.076136797708084 6.657801493427584 L 20.936895784907787 6.158036582370844 L 22.838251966341 5.8465343414580175 L 24.761207619547644 5.726407198111364 L 26.686549207285502 5.798855423038443 L 28.59503935284321 6.063155137523982 L 30.467609053549317 6.516665546186719 L 32.28554821194362 7.154855322933898 L 34.03069258088624 7.971347886473755 L 35.68560525471072 8.957985113007965 L 37.23375089302162 10.104908849507893 L 38.65966093634984 11.400659413121021 L 39.94908816288563 12.832290092533915 L 41.089149042009424 14.385496507232066 L 42.068452462271054 16.04475953214159 L 42.87721354760991 17.793500359597026 L 43.50735142460218 19.614246149307302 L 43.95256996387684 21.48880461120017 L 44.20842068895912 23.39844577677104 Z"></path><path fill="none" stroke="#000" stroke-width="0.07777777777777778" d="M 45.29808612935161 25 L 45.29808612935161 25 L 45.19668024587697 27.02642728968476 L 44.89347580952041 29.032607187738797 L 44.39150233878392 30.99849460777566 L 43.69577538665677 32.904447052530315 L 42.81324642686783 34.7314208751989 L 41.75273339705802 36.46116155726256 L 40.524832592862225 38.07638610160235 L 39.1418127932259 39.560955718493496 L 37.61749267482147 40.90003707905748 L 35.96710274039878 42.080250524981 L 34.2071331406362 43.08980375363909 L 32.355168910005965 43.91860964288491 L 30.429714262922538 44.55838703823993 L 28.450007705748902 45.00274349545205 L 26.435829812000343 45.24723915168553 L 24.407305581392514 45.28943108716278 L 22.38470335749668 45.128897734011346 L 20.38823231315061 44.76724308843062 L 18.43784052708382 44.20808068409212 L 16.55301566930889 43.45699748690548 L 14.752590286764432 42.52149807190189 L 13.054553634731331 41.41092964000107 L 11.475871934140411 40.13638862386947 L 10.032318850701186 38.71060981603303 L 8.738317889648176 37.14783912703982 L 7.6067982808443695 35.46369124503097 L 6.649065794190282 33.67499361893824 L 5.874689776108294 31.799618324176706 L 5.291407535796402 29.856303490774987 L 4.905047036592325 27.86446607817395 L 4.719468664890311 25.8440078673864 L 4.73652665843635 23.815116608979828 L 4.956050579397555 21.798064313745957 L 5.375847017320645 19.813004701469918 L 5.9917215049641435 17.879771831624105 L 6.797520428028552 16.017681928002197 L 7.785192510036325 14.245340377396095 L 8.944869258025022 12.580455830721231 L 10.264963565266912 11.039663264030319 L 11.732285485809182 9.638357767331431 L 13.332174024053927 8.390540721937565 L 15.048643622579837 7.30867990329282 L 16.864543884547857 6.403584907081459 L 18.761730934797225 5.684299143320988 L 20.721248707448506 5.158009477598647 L 22.72351834864783 4.829974422286096 L 24.74853384200268 4.703471595222048 L 26.776061902084574 4.779764970838247 L 28.78584413872885 5.058092250944778 L 30.757799472172643 5.535672481361583 L 32.67222477656594 6.207733838293372 L 34.50999174709212 7.06756130681563 L 36.25273802366668 8.106563775084059 L 37.88305066156942 9.314359873884268 L 39.38464011583211 10.678881703841357 L 40.74250300098725 12.186495413881346 L 41.94307199993615 13.822137426164351 L 42.97435142409668 15.569464946375003 L 43.82603707035827 17.411019255521044 L 44.489619177273326 19.32840015168241 L 44.95846745178062 21.302449798746512 L 45.22789731690193 23.313444145173943 Z"></path><path fill="none" stroke="#000" stroke-width="0.04999999999999999" d="M 46.21320343559643 25 L 46.21320343559643 25 L 46.10722577730857 27.117786576999826 L 45.79035169617506 29.214412930569434 L 45.26574729326993 31.268930263236495 L 44.53865424237586 33.26081051694613 L 43.61633741691237 35.17015148263135 L 42.508012301722076 36.97787565650723 L 41.22475291499239 38.665920856182574 L 39.77938116032637 40.21742069201578 L 38.18633871452025 41.61687309050486 L 36.461542731102696 42.85029518588158 L 34.62222680139827 43.90536303228406 L 32.68676876217958 44.771534740550116 L 30.674507070397116 45.44015580928905 L 28.605547579709896 45.90454559779877 L 26.50056264944179 46.16006407681934 L 24.38058459320052 46.204158190171555 L 22.266795530952482 46.036387364050384 L 20.18031574428189 45.658427909092765 L 18.141992649518638 45.07405627123586 L 16.172192497245568 44.289111298717536 L 14.29059687945482 43.3114359022349 L 12.516006077586553 42.15079869117308 L 10.866151216331303 40.81879636888935 L 9.357517100093224 39.32873786228655 L 8.005177502273632 37.69551134341479 L 6.8226445531099 35.93543547177774 L 5.821733730936646 34.06609634368105 L 5.012445805831906 32.10617177777131 L 4.402866915228298 30.075244692446166 L 3.9990877699007434 27.993607439806944 L 3.805142797597714 25.882059051184225 L 3.822969832372781 23.76169742009203 L 4.0523907523873035 21.653708499049866 L 4.4911132596449725 19.57915461654829 L 5.134753783875645 17.558764029224918 L 5.97688128172048 15.612723811975949 L 7.009081493591353 13.760478155376765 L 8.221041016171277 12.020534085757093 L 9.600650350531188 10.410276549111536 L 11.134124896240367 8.945794706465882 L 12.806142682537388 7.64172117629851 L 14.599997460397166 6.511085830253453 L 16.497765625848878 5.565185602970036 L 18.480485306702086 4.813471616846233 L 20.52834582330569 4.263454749547787 L 22.620885630310475 3.9206305878013303 L 24.737196761666542 3.788424517308446 L 26.85613373610884 3.8681574974239723 L 28.956524835816175 4.159032862566818 L 31.017383647217265 4.658144282239089 L 33.01811875029794 5.360504800119717 L 34.93873946126331 6.259096662083561 L 36.76005557284221 7.344941435280855 L 38.46386909649482 8.607189717670373 L 40.03315609069865 10.033229541658287 L 41.45223675854494 11.608812388709403 L 42.706932115086275 13.318195555834432 L 43.78470565906723 15.144299451474412 L 44.674788633500924 17.0688782491338 L 45.36828762352911 19.07270219364755 L 45.85827341648375 21.135749738538216 L 46.13985023628938 23.237407594690097 Z"></path></svg>