<svg viewBox="0 0 100 100" preserveAspectRatio="xMidYMid meet" xmlns="http://www.w3.org/2000/svg" xmlns:xlink="http://www.w3.org/1999/xlink" width="500" height="500"><circle cx="25" cy="25" r="2.8284271247461903" fill="none" stroke="#000" stroke-width="2"></circle><path fill="none" stroke="#000" stroke-width="0.3" d="M 31.213736216704284 25 L 31.213736216704284 25 L 31.389369637788548 25.319734972117736 L 31.53179454791309 25.655365464094395 L 31.625235785098436 26.001306455068473 L 31.65747536004242 26.349537066632312 L 31.621114666258272 26.690648139507168 L 31.514305243038248 27.015110752693758 L 31.340870783913882 27.3145985181663 L 31.109813173910034 27.583187577686246 L 30.83426583038032 27.818271663518928 L 30.530020227486336 28.02106381916231 L 30.213798885906602 28.196607277985212 L 29.901474829416912 28.353279345964427 L 29.60644055809005 28.50183637660784 L 29.338308807874597 28.65410709973341 L 29.102085442084757 28.821488276234273 L 28.897896940084774 29.013424980919915 L 28.721288169160264 29.236064058305097 L 28.56403851487427 29.49125242218472 L 28.415384105016113 29.776013668184483 L 28.26348795233155 30.082581346279362 L 28.096973720789983 30.399001702068723 L 27.90633541094351 30.710250565854995 L 27.685054707225373 30.999746550536226 L 27.43029740165919 31.251093403927072 L 27.143115131021315 31.44985430591833 L 26.82814175493754 31.585153890693 L 26.492837217180867 31.650920853469245 L 26.146387830701443 31.64662333525167 L 25.798413729858503 31.577406361815598 L 25.457656663047707 31.45360879725703 L 25.130821694734312 31.289708558185644 L 24.82172482327206 31.102810823276286 L 24.530857794593803 30.91084686982655 L 24.255426665927143 30.73068471600935 L 23.98985884118212 30.576362972038506 L 23.726712130872183 30.45764499421138 L 23.45786657273994 30.379053287935694 L 23.175841941999185 30.3394885179536 L 22.87506588559943 30.332470031227302 L 22.552921786441594 30.346963445143892 L 22.210431408245253 30.368694002790768 L 21.852471991556712 30.38178988393186 L 21.48748533521616 30.370563821446176 L 21.126700401562772 30.321228294106376 L 20.782953217738164 30.223350603418474 L 20.469240561943035 30.07088777048903 L 20.197180488977097 29.862693200539216 L 19.97556846403122 29.602451084433127 L 19.809210557715975 29.298062776738313 L 19.698185430311224 28.960573699382316 L 19.637638063342852 28.602782003676122 L 19.61814609551267 28.23770508108348 L 19.626631570562523 27.877093049469355 L 19.647725072787942 27.5301682366486 L 19.665433575829752 27.202737935858405 L 19.66492465995463 26.89677843749268 L 19.634222866480293 26.610527771238786 L 19.565621076105327 26.33906027973523 L 19.456640278017534 26.0752560504706 L 19.31042149689573 25.811029747167254 L 19.13549812572511 25.538652421941052 L 18.944967927651895 25.251990178259877 L 18.75515316539246 24.947496172325987 L 18.583896526095508 24.624825699269334 L 18.448682731970585 24.286993769305393 L 18.3647959640267 23.940054370396606 L 18.343719080684114 23.592343019593113 L 18.39195257594494 23.253381384088822 L 18.510382613857043 22.932587509226547 L 18.694264049582255 22.637961862341736 L 18.93381359795643 22.37492456171595 L 19.215338579828018 22.145462044917938 L 19.522766156098868 21.947704040229052 L 19.83939371342153 21.775998564562656 L 20.149658191316476 21.62149028498003 L 20.440723167230722 21.473143637721563 L 20.703707113245123 21.31909453312766 L 20.934421268423698 21.148170493449555 L 21.133545480089317 20.951394263984906 L 21.306237864043926 20.723283587053075 L 21.461241074728584 20.4627804892937 L 21.609606351547782 20.173684852974365 L 21.763199404878662 19.864524417312627 L 21.9331746380787 19.547859899625646 L 22.128603700418566 19.239091681591646 L 22.355421261408143 18.954895303860074 L 22.615808264388694 18.711459458803468 L 22.908076185445857 18.52272654568866 L 23.227052101129907 18.39883880666308 L 23.564901566981714 18.34497203512838 L 23.91227217278195 18.360696148004124 L 24.259601799512414 18.439942451257373 L 24.598416764445588 18.57158813962778 L 24.92244841860433 18.74059759306291 L 25.22842181184295 18.92959573087657 L 25.51641353869671 19.120698657837487 L 25.789732316488138 19.2973970040796 L 26.054338121494535 19.446281255990453 L 26.317875994451047 19.558416721296673 L 26.58845134393528 19.630216395134042 L 26.873308327153705 19.66371808549346 L 27.17758724672356 19.66624084636315 L 27.503328965909464 19.649466947343893 L 27.84886497328895 19.628060902966997 L 28.208684446117005 19.617988848002867 L 28.57381023495863 19.634733772593975 L 28.93265142472148 19.6916111713238 L 29.272238970545615 19.798374640825696 L 29.579700485804786 19.96026387985119 L 29.843796934129365 20.177593020218183 L 30.05633205737934 20.445911913633687 L 30.213256576250828 20.756704823609365 L 30.315322433416284 21.098528110029232 L 30.368193815470107 21.45843842608551 L 30.38198534076735 21.823531548110726 L 30.370266054897094 22.18240279812791 L 30.348632532166857 22.526353943432284 L 30.33300760687465 22.850206504561918 L 30.33785653713555 23.15263305563639 L 30.374525333285284 23.43597985225972 L 30.449894812663043 23.70561827917367 L 30.565509800204765 23.968921239491745 L 30.717289661576466 24.234006507718615 L 30.895860214219994 24.50841664816931 L 31.087475760623697 24.797911057021143 Z"></path><path fill="none" stroke="#000" stroke-width="0.2722222222222222" d="M 35.729025768569414 25 L 35.729025768569414 25 L 36.03228542345617 25.5520744098763 L 36.27820518533864 26.131595018983383 L 36.439546672431945 26.728918380826045 L 36.49521353988149 27.33019514484915 L 36.43243089076864 27.919178867875587 L 36.248007057170256 28.479416318647623 L 35.94854426760077 28.99653063458658 L 35.54958574002585 29.46029331137974 L 35.07380845465547 29.86620420407244 L 34.548478958908895 30.216357829472972 L 34.00247140338056 30.519462149889982 L 33.46319314415646 30.789981946022493 L 32.953768509881286 31.04648981090266 L 32.490795451948834 31.309409969602186 L 32.08291740719307 31.598420782617318 L 31.730352762798603 31.929830707127884 L 31.425409007846376 32.31425326950422 L 31.153891915054835 32.754877466672944 L 30.897215909129116 33.24656405259659 L 30.634942507191298 33.77590298868599 L 30.3474286155909 34.322254174601724 L 30.01826058085508 34.85967593882526 L 29.6361834714508 35.3595378208267 L 29.196303566539 35.79352902560776 L 28.700436687982595 36.13672203620185 L 28.156583947769477 36.37033876547688 L 27.5776261516148 36.48389611869216 L 26.97942496228039 36.47647575482585 L 26.37859110571883 36.35696139732518 L 25.790218631714087 36.14320477587988 L 25.225884924132945 35.86020436724582 L 24.692178924514305 35.53749504325825 L 24.189949712156228 35.20603806932653 L 23.714373090640404 34.894958821123275 L 23.255827066859638 34.62849724149221 L 22.801461490760712 34.42351135234623 L 22.337255927413487 34.287809994512465 L 21.85029455263635 34.21949498694516 L 21.330955792969263 34.207376428590464 L 20.774721633597398 34.23240166396617 L 20.183356315694574 34.26992300456186 L 19.56528118797529 34.29253517239853 L 18.935072388552076 34.27315155045387 L 18.31211854643808 34.18796574183977 L 17.718583149294442 34.01896399652339 L 17.176907247619702 33.75571212901546 L 16.707151301816353 33.39623035702409 L 16.324502112448247 32.946880035028904 L 16.037258141765466 32.421304136243634 L 15.845555209529298 31.838574377321923 L 15.7410103370456 31.22078884714569 L 15.70735428570439 30.590424188363315 L 15.7220058378935 29.96776888972944 L 15.75842719873555 29.368746799524878 L 15.789003808175073 28.803385153637098 L 15.788125082180308 28.275096338724143 L 15.735113444441014 27.780838026591105 L 15.616661300507973 27.312105269020755 L 15.428488235191828 26.856604379551225 L 15.176017738248733 26.400374710635695 L 14.873984099973363 25.930070977228112 L 14.545002737790215 25.435102009755187 L 14.21725669185064 24.9093436057764 L 13.92155426226953 24.352200576293647 L 13.688085664498608 23.768878826605484 L 13.543241521856627 23.169831551148615 L 13.506848856217585 22.56945137524642 L 13.590131827285846 21.98417900528237 L 13.79462054135706 21.43027622766783 L 14.112121734432126 20.921557149923466 L 14.525742974169729 20.467380487431367 L 15.011841623944463 20.071176147596606 L 15.542665314031558 19.72971480223984 L 16.08937426708007 19.433237383697865 L 16.625096329026917 19.166453720007272 L 17.12766732946895 18.910309116244036 L 17.58175186655043 18.644318292821275 L 17.980117363532784 18.349190150554072 L 18.323937687344284 18.009423999732828 L 18.622119163491234 17.615553831200714 L 18.889757406192295 17.165752881952358 L 19.14593417692081 16.666582266483864 L 19.411137553696 16.132766512940943 L 19.70462742732779 15.585993741814649 L 20.042067475094072 15.052855215770313 L 20.433704868725172 14.562143966744461 L 20.883305361463925 14.141812403974793 L 21.38795344226252 13.815934346463695 L 21.938717217803404 13.602022024141093 L 22.522069246052844 13.509012285763118 L 23.12186107031072 13.536162522971164 L 23.721582137542516 13.672994148906989 L 24.30660125692075 13.900301832012392 L 24.86609458686858 14.192124129869615 L 25.394407393538533 14.518460140941862 L 25.891671929848002 14.848430412660313 L 26.36360123416492 15.153528833960978 L 26.82048617446779 15.410601699556963 L 27.275527156468804 15.604221810691817 L 27.74271948580391 15.728195620314624 L 28.23457137759993 15.786041735215761 L 28.75995840000382 15.79039769199198 L 29.322404435232734 15.761434828339487 L 29.91902852705963 15.72447381266176 L 30.540315344100097 15.707082772314392 L 31.170764378405707 15.73599560690621 L 31.79036203069095 15.83420368258554 L 32.3767151365788 16.0185481696187 L 32.90759742784682 16.298076259737705 L 33.3636028810305 16.67333035259574 L 33.73057932395464 17.136626543687658 L 34.00153501759455 17.673261029531073 L 34.17776831322037 18.2634745050302 L 34.269059349835416 18.884918177672922 L 34.29287266040116 19.515310807409236 L 34.27263740809785 20.134960363610585 L 34.23528361406107 20.728847933407824 L 34.2083046403413 21.288032030125073 L 34.21667710674554 21.810220637175178 L 34.27999174468194 22.29946494629806 L 34.410129403926916 22.765039526496555 L 34.609757475880365 23.21967489363668 L 34.8718300819606 23.67738770513783 L 35.180161171984935 24.151201424512898 L 35.51101656450982 24.651060585588695 Z"></path><path fill="none" stroke="#000" stroke-width="0.24444444444444444" d="M 38.370300836308544 25 L 38.370300836308544 25 L 38.74821705207803 25.6879842684037 L 39.05467742125659 26.410171450328566 L 39.25573800833564 27.154544072471733 L 39.325108963394364 27.903843346635274 L 39.24687046121849 28.637823274954762 L 39.01704510803319 29.335980164327903 L 38.64386047112481 29.980397851451016 L 38.146686202934134 30.558329775479105 L 37.553781910065396 31.064167944302852 L 36.899126627486595 31.500522503562472 L 36.218702753615645 31.878245144571714 L 35.54666479641085 32.21536159246621 L 34.91182983929492 32.53501664729643 L 34.334881922756544 32.862662576532685 L 33.82659232773239 33.222822165885006 L 33.38723320403548 33.635818693847995 L 33.007218295896394 34.11487852818015 L 32.668859036525646 34.663975734112974 L 32.34899444763235 35.27670588434106 L 32.022154493948634 35.936357652595746 L 31.66386033861381 36.61720975189509 L 31.253657609582504 37.28693418155376 L 30.777520632601085 37.90985222491808 L 30.229350949036075 38.45068352623096 L 29.611411400369633 38.878363904257796 L 28.933672814951944 39.169492476243505 L 28.212186999455913 39.31100541576045 L 27.46672044596239 39.30175830429408 L 26.71797311436392 39.15282186323125 L 25.984754912549924 38.88644256690697 L 25.281493348528596 38.533773025249225 L 24.6163994316188 38.13161901448754 L 23.99053126773749 37.71856385446154 L 23.39787703821655 37.33090301533907 L 22.826446004543172 36.998843837009744 L 22.260224562527256 36.7433944547267 L 21.68174072198858 36.5742860923022 L 21.074899036930265 36.489153273860715 L 20.427709291795544 36.474051364852414 L 19.734541225406918 36.50523732084601 L 18.99759340040656 36.55199567732378 L 18.227360335885876 36.58017451602347 L 17.442006528398398 36.5560190276979 L 16.66569370597995 36.44986214889803 L 15.926041570922543 36.23925549872476 L 15.25101571886555 35.9111962004973 L 14.665615100904983 35.463217088472604 L 14.188765209127403 34.90324555745364 L 13.830807423929853 34.248283212255615 L 13.591911001226803 33.52209685096666 L 13.46162923789137 32.75222467720675 L 13.419687728839124 31.966676640852175 L 13.437946204931254 31.190735857445286 L 13.48333378828039 30.444246313437294 L 13.521437757417864 29.739703752921283 L 13.520342706370721 29.081360625017236 L 13.454280646339498 28.46542564018161 L 13.30666791492729 27.881300099267403 L 13.072170342935472 27.313663852064522 L 12.75754657659964 26.74511941425361 L 12.381158198611342 26.159036154157494 L 11.97118809724269 25.542215564618314 L 11.562757422673902 24.887025785038624 L 11.194258872403948 24.192725102598377 L 10.903314898984398 23.465801014062745 L 10.722812978001626 22.719280084688812 L 10.677461154049947 21.971098121002605 L 10.78124675413549 21.241743207854512 L 11.036076566621489 20.551480463545634 L 11.431740307101677 19.917524757097695 L 11.947186958723996 19.351538735502036 L 12.552953532857051 18.857796681888896 L 13.214455572333485 18.432274271013057 L 13.895753513995208 18.062809944746753 L 14.563359808115601 17.73034939159893 L 15.189653901583 17.411147025626036 L 15.75552511830437 17.07967449442212 L 16.25196036343752 16.711891609704573 L 16.6804224868545 16.288481716908652 L 17.05201037618351 15.797648461651772 L 17.385535888881698 15.237115367815276 L 17.70477834069389 14.615058767204749 L 18.03526957137736 13.949828077113747 L 18.40101087795178 13.268450606619012 L 18.821522026882977 12.604063864113375 L 19.309572841984505 11.99254915953911 L 19.869856130862395 11.468740235369147 L 20.498738641006895 11.062637411230233 L 21.185089622686437 10.796064083535823 L 21.912051443769446 10.68015717738756 L 22.659500215211388 10.713991268858583 L 23.406860810639458 10.884508149155641 L 24.13590012788981 11.167774511925199 L 24.833129708531217 11.531437718376251 L 25.491502734490837 11.938111235233563 L 26.111184016752457 12.349313696209892 L 26.699293031335277 12.72952134650959 L 27.26865405545767 13.049880494116383 L 27.83571717502123 13.291166067445534 L 28.41792306457415 13.445659790010355 L 29.030859215728263 13.517746480370032 L 29.68558618689566 13.52317478800805 L 30.386495370768582 13.487081837122496 L 31.129996576375124 13.44102174653399 L 31.904231984943003 13.419349374194102 L 32.689885168414676 13.455379979848486 L 33.462015573096224 13.577764951672695 L 34.1927172780908 13.807491424729436 L 34.85429234520601 14.155833831366065 L 35.42255736978298 14.62346809935953 L 35.8798761932784 15.200818698084094 L 36.217535848071016 15.869562036913909 L 36.437154313970694 16.605074458571437 L 36.55091940779471 17.379505337504963 L 36.5805950869328 18.16508823071205 L 36.555378313608756 18.937283317032723 L 36.50882875035649 19.677374322722606 L 36.47520808407522 20.374218542995738 L 36.48564168699326 21.02495971187297 L 36.56454314317501 21.634646344799858 L 36.72671813387505 22.214836227205364 L 36.97549070977928 22.78139387750911 L 37.30208043561563 23.351786578431756 L 37.686316574081154 23.942243913987177 L 38.09862205519313 24.56515856658749 Z"></path><path fill="none" stroke="#000" stroke-width="0.21666666666666667" d="M 40.24431532043454 25 L 40.24431532043454 25 L 40.67520120912379 25.784413847634866 L 41.02461582276419 26.607824573872367 L 41.25385755976545 27.45653030658362 L 41.332951719720555 28.310853223065987 L 41.243747115279 29.147709596244006 L 40.98170887130226 29.943721884601487 L 40.556217751287654 30.678462751006865 L 39.98935830614165 31.33739904507323 L 39.31335107893062 31.914136744625953 L 38.56693769033145 32.41165183978363 L 37.79114392085452 32.84231702179475 L 37.024911458896014 33.22668454608056 L 36.30109646167253 33.59114324519747 L 35.64328209602307 33.96471283947096 L 35.06374937230139 34.37535328900036 L 34.56280858551243 34.846236433335854 L 34.12952984653249 35.39244248070335 L 33.7437453152354 36.018502511161174 L 33.379047713242116 36.71711443700869 L 33.00639706205105 37.46922463109262 L 32.59788351039181 38.24550664713473 L 32.13018575076665 39.00910131179552 L 31.587312235676226 39.71932909111717 L 30.96230973141881 40.33596464728845 L 30.25775824494388 40.823589766485384 L 29.485026140601413 41.15552364026075 L 28.662415086048735 41.31687138391507 L 27.812462093859338 41.30632817440002 L 26.958768481579153 41.13651643283475 L 26.12278060038047 40.83280075450273 L 25.320948153531575 40.430700176306 L 24.56263302575655 39.9721792632402 L 23.849041629718656 39.501229268826506 L 23.17331951535366 39.0592329262372 L 22.521795292537156 38.680631510945915 L 21.876210850649244 38.389377710481085 L 21.216645282087036 38.19656670108923 L 20.524747163273513 38.09950145593671 L 19.786845700339097 38.08228282595361 L 18.996521480753206 38.11783988278845 L 18.156281223143896 38.17115200633296 L 17.278090384393874 38.203280460865194 L 16.38265944188799 38.17573927946155 L 15.497536691313389 38.054703189573154 L 14.654213080850722 37.81457738962831 L 13.884573933296366 37.44053648754188 L 13.217122114655613 36.92976751350896 L 12.673435760865274 36.29130898562467 L 12.26530572581496 35.544545495748956 L 11.992924988747372 34.71657505526153 L 11.844382610748353 33.83879569061526 L 11.796562475896112 32.943143295643154 L 11.81738010522448 32.05844472998953 L 11.869129324683161 31.207325362401157 L 11.912574040520395 30.404032371415795 L 11.911325504405989 29.65341423995561 L 11.836004022401738 28.95114828194342 L 11.667701524910619 28.285150258306277 L 11.400336192366124 27.63795270863185 L 11.041613979601737 26.989719674104137 L 10.61247007422162 26.321489532515173 L 10.145037547928535 25.618213841250494 L 9.67936021830882 24.871191039226815 L 9.25921199844355 24.07957545331796 L 8.927488597026635 23.25076388390557 L 8.721687079686557 22.399608731900628 L 8.669978631751057 21.546559730899727 L 8.788311078626755 20.714976626475924 L 9.078858468857076 19.927964946109107 L 9.529979419281997 19.20515243750519 L 10.11767235038303 18.559836413146783 L 10.808344668060908 17.99689025027528 L 11.562564471964249 17.511725564250625 L 12.339354820738613 17.090476202833077 L 13.100534466737358 16.711417155034518 L 13.81461149170718 16.34747459476651 L 14.459796619855739 15.969542052514893 L 15.02581345864187 15.550209807658591 L 15.514329894599248 15.06745373548075 L 15.938000462938543 14.507824075348356 L 16.318273737656007 13.868725274611016 L 16.68226200229384 13.159479679993368 L 17.05907570251334 12.401008608569263 L 17.47608021657688 11.624127584003654 L 17.95553124976958 10.866618749948982 L 18.5119884760422 10.169392629628847 L 19.15080245853916 9.572165349146118 L 19.867830699079185 9.109142147238734 L 20.650382334476905 8.80520524161911 L 21.479236925123978 8.673052536397858 L 22.331449967839497 8.711628897938208 L 23.18356247557262 8.906045846556609 L 24.014785749395912 9.229015524397004 L 24.80974075513283 9.643650666676324 L 25.56039297523412 10.107324551007155 L 26.26693032099929 10.576162167483144 L 26.93747015184171 11.009660663842359 L 27.586634227441046 11.374922143123474 L 28.23317831848656 11.650026900086964 L 28.896987627672544 11.826174845495208 L 29.595834428046157 11.908365384938062 L 30.342329553284078 11.914554537620816 L 31.141479904556 11.873402709335084 L 31.989192080830314 11.820886722356526 L 32.87194624208319 11.796176696625922 L 33.767718521852785 11.83725744121845 L 34.648072636660416 11.976796193847283 L 35.48119130261199 12.238721698411709 L 36.235494369888855 12.635888639624223 L 36.88340882793163 13.169067684973301 L 37.404826590529936 13.82734117374163 L 37.78981345893827 14.589817235452784 L 38.040214193024454 15.428420900031169 L 38.16992488420072 16.31139792926033 L 38.20375998003496 17.207090066707742 L 38.1750087612986 18.087517929093263 L 38.12193469595528 18.931341923383364 L 38.08360167380794 19.72585755568823 L 38.09549767635553 20.467808218713962 L 38.185458156078596 21.162950040336398 L 38.370363995190786 21.82446077381944 L 38.65400515155596 22.470428547781612 L 39.02637050234474 23.12076890255704 L 39.46446212974987 23.793986200856487 L 39.93455736839596 24.504210114156244 Z"></path><path fill="none" stroke="#000" stroke-width="0.18888888888888888" d="M 41.697913883731296 25 L 41.697913883731296 25 L 42.169886242726236 25.859210440199682 L 42.55261875682371 26.761136247206835 L 42.80371949192022 27.69076902766008 L 42.89035555552 28.626554609922238 L 42.79264498133628 29.543208153138234 L 42.505620478090634 30.415122985781977 L 42.039557297753994 31.21992395297592 L 41.41864583008449 31.941692117823322 L 40.678178959157286 32.57342376586418 L 39.8605924541218 33.11837865824059 L 39.01082404655702 33.59010926540688 L 38.17152865048555 34.01112757192434 L 37.378695372155896 34.41033867744859 L 36.658156115507744 34.81952943371677 L 36.02336292800806 35.26932588041104 L 35.47465569237131 35.78510937269258 L 35.000062316475926 36.38339806916752 L 34.577491886393084 37.069155104159954 L 34.178019097771084 37.834382110473086 L 33.769834909009006 38.65820863123885 L 33.322368167305015 39.508511841379416 L 32.810073797260955 40.344917916993126 L 32.21543540162325 41.12286838886834 L 31.530836731637905 41.79830229312461 L 30.759103806903443 42.33242416588461 L 29.91268900490779 42.696009090683745 L 29.011639121065944 42.872741903686034 L 28.08064015059898 42.86119336242065 L 27.145543878886617 42.67518947982566 L 26.229841641385228 42.34251345369221 L 25.351551677865714 41.90207118480741 L 24.520928561368994 41.39982870560604 L 23.73929374020782 40.883971988858505 L 22.999139168629608 40.3998297554853 L 22.28548984184273 39.98512737653895 L 21.578346674784846 39.66610151173332 L 20.855889231926596 39.45490530101569 L 20.09801621753302 39.3485845466498 L 19.28975327992232 39.32972406032359 L 18.424068893219655 39.36867160637646 L 17.503708800405434 39.427067226592456 L 16.541779406353008 39.462259241171 L 15.560966004602584 39.432091912191794 L 14.59144371678856 39.299514609551586 L 13.667706262686778 39.036491978199535 L 12.824679341682058 38.62678497327684 L 12.093583667331663 38.06731239850985 L 11.498054925992813 37.367974626176114 L 11.051008270542228 36.55000463648792 L 10.752655081465567 35.643084330595165 L 10.5899486703362 34.681605646135495 L 10.537568719063431 33.70054967565484 L 10.56037138185817 32.731492020271496 L 10.617055069640006 31.79921545644866 L 10.664642390454663 30.919325680822045 L 10.663274802072971 30.0971334960482 L 10.580771154407268 29.327904032876134 L 10.396420427565738 28.598400777946658 L 10.103560879302607 27.8894906876562 L 9.710633254085357 27.179446375424995 L 9.240568982575585 26.4474981623223 L 8.728565136785651 25.677162684315118 L 8.218483851785422 24.85890865616244 L 7.7582730357372185 23.991809766859966 L 7.394918652569011 23.083968127469515 L 7.169493243723043 22.151652367061345 L 7.11285421517114 21.217262172558996 L 7.242470073020325 20.306384722640253 L 7.560722168915078 19.444328737309117 L 8.054859073262943 18.652593538380685 L 8.698590572338432 17.945744383398672 L 9.455120901188485 17.329119343098895 L 10.281258190417931 16.797692514384085 L 11.132118204587345 16.33627555910121 L 11.965878981097825 15.921071910794021 L 12.748045737601077 15.522426159755685 L 13.45475151496371 15.108456433223076 L 14.074740030822042 14.649139398243072 L 14.609838210500152 14.12035085309481 L 15.073907243218072 13.507358555622037 L 15.490440899210157 12.807319458188578 L 15.889136712689172 12.030444825749939 L 16.301880911704863 11.199650895834031 L 16.758648258653295 10.348691559620846 L 17.2838166178374 9.518951619759113 L 17.893333978831958 8.755242560357306 L 18.593061099613767 8.101067578477476 L 19.37846048037122 7.593893501511541 L 20.235631139910673 7.26097515329808 L 21.143519902760378 7.116221227332733 L 22.07699442744311 7.158475979311326 L 23.01035883078271 7.371431261154402 L 23.920842138999852 7.725197222712957 L 24.791598873442535 8.179369270024782 L 25.61382839732815 8.687256074249635 L 26.38773653995312 9.200798990465481 L 27.122214679224466 9.67563307837169 L 27.833278810536385 10.075723511944965 L 28.541473132641606 10.377060465702638 L 29.26857897157349 10.570004731246682 L 30.03406324851687 10.660032424903381 L 30.851739284064312 10.66681173485188 L 31.727091404851578 10.62173593640312 L 32.65563588980096 10.56421236714766 L 33.62256373505139 10.537146154396122 L 34.60375102176255 10.582144091073935 L 35.56804996777958 10.73498834979353 L 36.480609400366276 11.021889363531217 L 37.306837892421925 11.456927555961006 L 38.01653325079072 12.0409470804007 L 38.58767001320362 12.761989239156284 L 39.00936672046292 13.5971700491329 L 39.28364403671533 14.515737494070281 L 39.42572309409071 15.482909458534815 L 39.46278448416381 16.464008961074214 L 39.431291736577535 17.428388686757557 L 39.373156874241396 18.352674238027603 L 39.33116866491451 19.22294970325111 L 39.34419899273999 20.035647946285607 L 39.44273751754611 20.797073961849073 L 39.6452747724634 21.521662047878564 L 39.95596210103884 22.22922509905917 L 40.36383378501155 22.941577671863723 L 40.84369897500724 23.678988584440013 L 41.358619432047526 24.456934821654684 Z"></path><path fill="none" stroke="#000" stroke-width="0.1611111111111111" d="M 42.885590388173675 25 L 42.885590388173675 25 L 43.39113283774566 25.920323706162264 L 43.80108805868214 26.886401005217554 L 44.070048895669146 27.882155998229305 L 44.162847143233435 28.88450142485211 L 44.058186685728856 29.86635400332318 L 43.7507469221652 30.800285730281768 L 43.251533954811705 31.6623299678713 L 42.58645876904994 32.43543550917259 L 41.79332453434054 33.11210048485636 L 40.91758535890915 33.69581651387313 L 40.00737527108961 34.20110001647649 L 39.1083831111504 34.65206419252427 L 38.25915779108615 35.07967008159125 L 37.48736856683078 35.51796544640147 L 36.80742429284071 35.99975467226805 L 36.21968902674931 36.552224420055964 L 35.71133913458251 37.19306773937927 L 35.25871243670621 37.9276007786012 L 34.83082625174536 38.74725626875316 L 34.393609048808386 39.629679295002376 L 33.914315233414726 40.5404622244281 L 33.365582779494076 41.436359554524024 L 32.72864939682651 42.26964349520855 L 31.995357113915883 42.99311914791164 L 31.16873295733091 43.56523163454132 L 30.26211500778388 43.954677351027385 L 29.296975933889847 44.14398068098336 L 28.299757577541335 44.13161072386825 L 27.29815049022425 43.932376898740834 L 26.317316881216303 43.57603854552982 L 25.376556577927225 43.104268834309394 L 24.486853532861044 42.566303234469494 L 23.649623185299916 42.01375505396152 L 22.85682346292981 41.49517712045299 L 22.09241423022069 41.050978106463454 L 21.334973922415788 40.70926081286156 L 20.56113007666213 40.48304279887897 L 19.74935164756743 40.369159742852275 L 18.883599199165378 40.348957762215576 L 17.956341072562722 40.39067553966829 L 16.970518307855883 40.45322467909487 L 15.940169532304454 40.49091980449014 L 14.889593581734315 40.458606756705585 L 13.85111185085526 40.31659959663142 L 12.861671502478822 40.034868891829674 L 11.958682404542216 39.59602055902373 L 11.175585913744241 38.99675424495747 L 10.53769885754443 38.24767450804941 L 10.058855007979345 37.37152457176093 L 9.73928078044488 36.400097528906265 L 9.56500151159412 35.37023152067631 L 9.508895919030845 34.31939574813201 L 9.533320472262234 33.28141169770537 L 9.594035914227998 32.282824876313576 L 9.645007989763183 31.34035097069998 L 9.643543128596402 30.459678526248698 L 9.555171224300219 29.635735895533927 L 9.357708139329937 28.854345088552925 L 9.04401830010977 28.095012181145147 L 8.62314281795264 27.334464377722053 L 8.119644172859598 26.550454709444555 L 7.571222907381014 25.725327396113624 L 7.0248609491320835 24.848873218489036 L 6.531916608577969 23.92009997962269 L 6.1427178315124245 22.947686071362835 L 5.9012585358315555 21.94905726544082 L 5.840590929583421 20.948206476655912 L 5.979426005476398 19.97254082904806 L 6.320314494121508 19.049169181986915 L 6.849597991951548 18.20112004467942 L 7.539116334937297 17.443994661217452 L 8.349456576973495 16.783510784567564 L 9.234354730266176 16.21428503302384 L 10.145734067653748 15.720048763881964 L 11.038797945826042 15.275312826626173 L 11.876598063821229 14.84831250414851 L 12.633569871609676 14.404898254115738 L 13.297656458546605 13.912911266809092 L 13.870814694109466 13.346511452656577 L 14.36789167563082 12.689918705799412 L 14.814052220345411 11.940087760473935 L 15.241106166066917 11.10795618071425 L 15.6832077201947 10.218070172742065 L 16.172463667200873 9.306584448808016 L 16.734985801558487 8.41782739829204 L 17.387856449301534 7.599797822423497 L 18.137353227937627 6.899093180540472 L 18.978615897823556 6.355845212005271 L 19.896754739359935 5.999247301013842 L 20.86921912284058 5.8441974280223015 L 21.86908911274016 5.889457643825626 L 22.86884114866956 6.1175598468052605 L 23.84408462036497 6.496488204309813 L 24.776775876795465 6.982964255182964 L 25.657488316186424 7.526975645298858 L 26.486442407903745 8.077045451032724 L 27.273161949012064 8.58565317639097 L 28.034802108430924 9.014200937682896 L 28.793368337038988 9.33697115684068 L 29.57219120644278 9.543639015190939 L 30.39212226617449 9.640070130092333 L 31.26795734017592 9.647331633636886 L 32.20557084009185 9.59904971811809 L 33.200160130145804 9.537434656228756 L 34.23586288292609 9.50844329850563 L 35.286839311861755 9.556641814160725 L 36.31972617906569 9.720357462934437 L 37.297193444123984 10.027664953522445 L 38.18218928724805 10.49364621125258 L 38.942363316684116 11.11920543173709 L 39.5541234598537 11.891533328138065 L 40.00581428941474 12.786118242835618 L 40.29960019377478 13.770020853572408 L 40.45178494216002 14.805985089092372 L 40.491482406566604 15.85686749001056 L 40.45774966680951 16.8898408825154 L 40.39547983225071 17.87986831269815 L 40.35050511754187 18.812044068558897 L 40.36446225660325 19.68254729341176 L 40.47000955457167 20.498131438838197 L 40.68695272513893 21.27425747452825 L 41.01973838545487 22.032147531654044 L 41.456620855999766 22.795167775850967 L 41.97061753184609 23.585028690330766 L 42.52216285907926 24.41830809515504 Z"></path><path fill="none" stroke="#000" stroke-width="0.13333333333333333" d="M 43.889756564648124 25 L 43.889756564648124 25 L 44.423682121381496 25.97199423629734 L 44.856653812996285 26.992310849041292 L 45.14071515096967 28.04397137619181 L 45.23872345083963 29.102592349369903 L 45.12818695071306 30.139569926691262 L 44.80348633049475 31.125936190670686 L 44.27624561757658 32.03637892376555 L 43.573830540211574 32.85288959839322 L 42.736166683912174 33.56754516128376 L 41.811260126230806 34.18403326437152 L 40.849947325901496 34.71768533585255 L 39.90048227128371 35.19396838382801 L 39.003578159292175 35.64558172030618 L 38.18845770483726 36.1084846810132 L 37.47033873115823 36.617323416250464 L 36.84960573549116 37.20081095110684 L 36.31271511548426 37.87763369138958 L 35.8346762052788 38.65340625457921 L 35.382766836011854 39.51908037211271 L 34.92100256935299 40.45104603783149 L 34.41479934657796 41.412963841308915 L 33.835258931712104 42.359160310373774 L 33.162565647041795 43.23922803232996 L 32.3881035010186 44.00332240458215 L 31.51506946918298 44.607555497562736 L 30.557550483653273 45.01886620187312 L 29.538224771657596 45.21879775247545 L 28.48501872229635 45.20573329815505 L 27.42717754164645 44.99531371599862 L 26.39127614267244 44.618969150305425 L 25.39769791969325 44.12071246399438 L 24.4580435067621 43.55254339601382 L 23.573807811393458 42.968973024921326 L 22.736497248249048 42.42128012179795 L 21.929171126591225 41.952142058227665 L 21.1292051922183 41.59123943494393 L 20.31191476187258 41.35232066726965 L 19.45455995405082 41.232043776292386 L 18.54020081685531 41.21070757837725 L 17.56088283495086 41.25476755310535 L 16.519712169792733 41.32082844298672 L 15.431515631437527 41.36063991842235 L 14.32195628627519 41.32651269123751 L 13.225170177044449 41.17653270030516 L 12.180178823086685 40.87898454477933 L 11.226492426923198 40.41549757031594 L 10.399429872276686 39.78258612907045 L 9.725729371155861 38.99145016036012 L 9.220001377030247 38.06610978011946 L 8.882485017131213 37.04014306828119 L 8.698421036496136 35.95245640167091 L 8.63916545910483 34.8426226471245 L 8.664961301161366 33.74636216005043 L 8.729085542718789 32.691710814728914 L 8.782919387593775 31.696322781167233 L 8.78137228345905 30.766205981674936 L 8.688038838877148 29.896004026936605 L 8.479489413074603 29.07074291978943 L 8.148187813794397 28.268778127956576 L 7.703682755284628 27.46553023115024 L 7.171915750113431 26.63750322971086 L 6.592703995011586 25.766050079695216 L 6.015667164606988 24.840388376833875 L 5.4950470234264515 23.859470218406983 L 5.083997122670137 22.832461234725205 L 4.828981368831844 21.777765547699676 L 4.764907648674139 20.72072312710483 L 4.911537462358506 19.690279838859315 L 5.271564748371649 18.71506653848001 L 5.830564267577113 17.81940464469143 L 6.558794835491305 17.01977131573131 L 7.414630710874164 16.32220532131823 L 8.34921046683559 15.721021035889239 L 9.311758162923105 15.199036432256406 L 10.254962099121366 14.729331300472365 L 11.139799554038534 14.278357529432487 L 11.939270684993215 13.810048289500799 L 12.640641659774191 13.290439251079444 L 13.245979214075144 12.692239562089727 L 13.770964018660468 11.998783160536078 L 14.242173740872495 11.206853807664178 L 14.693204145772393 10.328003144629308 L 15.1601269899771 9.388155496547416 L 15.676851656939387 8.425495440961498 L 16.270955958202357 7.4868401343711 L 16.960481287610826 6.622883216233436 L 17.752057712383763 5.882838307364157 L 18.64055212023841 5.309090298092123 L 19.610238825164746 4.932471602041467 L 20.6373011179413 4.768716629875357 L 21.693307673810374 4.816517929135436 L 22.74918965331746 5.057426671459886 L 23.779187063063 5.4576295316034305 L 24.764243211704166 5.971418228318825 L 25.694402251606643 6.545972520609897 L 26.5698970301387 7.12692537138895 L 27.400786047143928 7.664088300339252 L 28.20518762903385 8.116696389389645 L 29.00634269775578 8.457588176235003 L 29.82889169338447 8.675859166973723 L 30.694856852039067 8.777704297394994 L 31.619864692406864 8.785373489815985 L 32.61011943830839 8.734380840938819 L 33.66054881543133 8.669306471318073 L 34.75439992399143 8.638687426713847 L 35.864382231922676 8.689591993336599 L 36.955259360206085 8.86249927143259 L 37.9876054156694 9.187060192359116 L 38.922288346146935 9.679203439027178 L 39.72514148384989 10.339883972085612 L 40.37124820605621 11.155573341822484 L 40.84829870468183 12.100383711415702 L 41.1585788852654 13.139526417738047 L 41.31930787365541 14.233653689689518 L 41.361234107153976 15.343536690506946 L 41.32560748100182 16.4345052019561 L 41.25984157724309 17.48011659876199 L 41.21234180821247 18.464628304638893 L 41.22708255500844 19.38400494523805 L 41.33855568625034 20.245379137016418 L 41.56767888495046 21.06507988826277 L 41.91914841853267 21.86552082262185 L 42.38055915962914 22.67137997258363 L 42.9234135955775 23.505586731803575 L 43.50592480933607 24.385649663238777 Z"></path><path fill="none" stroke="#000" stroke-width="0.10555555555555554" d="M 44.759604872299676 25 L 44.759604872299676 25 L 45.31811699479142 26.01675328539343 L 45.771026460189745 27.084054128761355 L 46.068168447098955 28.184142232341195 L 46.17068989955963 29.291511301282824 L 46.05506333978937 30.376240324612425 L 45.71541068543428 31.408027450555352 L 45.16389123497454 32.360394867427146 L 44.42913087225747 33.214504778766724 L 43.55289370320577 33.96206928517947 L 42.585396421754005 34.6069458500943 L 41.57981643832848 35.16517189369952 L 40.586629773635565 35.66338714613863 L 39.648424413463765 36.135796679492294 L 38.79576874009731 36.62001570933974 L 38.0445813374097 37.1522857953834 L 37.395264408226254 37.76264215954382 L 36.8336506852186 38.47063169190248 L 36.33359871541596 39.282127555649396 L 35.860879517355116 40.187664821420796 L 35.3778516169108 41.16254627349925 L 34.84833840519273 42.16875911966774 L 34.24211092067822 43.15852668476579 L 33.53844099990165 44.07912036140765 L 32.728315896298625 44.878400268969145 L 31.815079801905156 45.51045749676891 L 30.81346833343335 45.94070851504463 L 29.74720402048267 46.149846649137984 L 28.645499225438286 46.13618059397419 L 27.53894585743948 45.91607146834434 L 26.45534256904685 45.522396733125575 L 25.416011382930204 45.00119598536617 L 24.433087126998796 44.40686348322215 L 23.50813354728108 43.79642046832649 L 22.632265940066922 43.22350703135112 L 21.787763518214675 42.73276578039963 L 20.950960210537776 42.35524406861594 L 20.09603463676059 42.105323407666 L 19.199199773910678 41.979507924928264 L 18.24273560770893 41.957189223316774 L 17.21832132790901 42.00327810161073 L 16.129206130593218 42.07238100810405 L 14.990899580812451 42.114025749331866 L 13.830246495223907 42.078327008469245 L 12.682954836188697 41.921440637306546 L 11.589843012407 41.61019078273323 L 10.592240618973031 41.125360846068304 L 9.72709292749487 40.46330466999384 L 9.022369409282298 39.635737936220444 L 8.493353309864453 38.66778685525428 L 8.14029476796545 37.59457573320113 L 7.947754884451101 36.45680253408483 L 7.885770666087833 35.295862402922985 L 7.912754372555458 34.14912057024962 L 7.979831450630773 33.045903925277436 L 8.036144272865716 32.00467958919449 L 8.034525926631666 31.03173214118707 L 7.936894600362457 30.12145853729574 L 7.718741749313267 29.2581952475918 L 7.372184149540416 28.419301037712476 L 6.907210220954738 27.57906463757258 L 6.350956048469875 26.712908087802234 L 5.745072358066853 25.801325672745804 L 5.141463744767002 24.833038472677227 L 4.596869734617574 23.806950330342275 L 4.166891529554658 22.73264894120566 L 3.900132637516485 21.629385912652637 L 3.8331084072845307 20.523668086553034 L 3.9864903299676584 19.44577424766947 L 4.3630963963570935 18.42565366455039 L 4.947837104131864 17.488747725086917 L 5.709601726596329 16.652292338862203 L 6.6048477121773495 15.922604352953947 L 7.582463629896939 15.293736326261412 L 8.589335374397152 14.74771502196829 L 9.575972604447799 14.256380590061758 L 10.501555653945406 13.784640073288983 L 11.337841373161044 13.294765812208507 L 12.071509553750955 12.751229464763108 L 12.704722101854212 12.125483471228673 L 13.25388176238585 11.400094319495995 L 13.746790069119722 10.571697667269673 L 14.218589827666868 9.652377093502869 L 14.707013851330679 8.66925070419758 L 15.24753300582597 7.662261426192657 L 15.86899502444509 6.680382284127649 L 16.59027208335923 5.776641292513236 L 17.418299555614396 5.0025182943174435 L 18.347707955895846 4.402349948013768 L 19.362047451150403 4.008388459097123 L 20.436404604195108 3.8370927870325957 L 21.541038865368268 3.887095272905249 L 22.645542813602724 4.139097544206226 L 23.722970241871074 4.557729216781613 L 24.75338692339708 5.095177203483033 L 25.726378556929703 5.696188961072448 L 26.64218871215058 6.303893922305971 L 27.511339069518492 6.865792493723738 L 28.3527822804143 7.339242586689984 L 29.190829480504316 7.695831989482109 L 30.05125576954118 7.924154070675787 L 30.957097478492383 8.030689034660359 L 31.924700706564337 8.038711383249652 L 32.960555373879274 7.985370590330678 L 34.05935563460099 7.917299632051293 L 35.20357714006628 7.8852706209374475 L 36.364672665299864 7.9385192755306875 L 37.50578324262989 8.119388705109024 L 38.58566746864517 8.458895227204714 L 39.563391311930886 8.973701019510738 L 40.40321477483276 9.66480501735086 L 41.079073857105236 10.518055803795601 L 41.57809190028199 11.506373441374492 L 41.90266007282854 12.593367295032138 L 42.07079041856602 13.737877680847742 L 42.11464729966876 14.898869326006253 L 42.07738011449935 16.04007549457594 L 42.00858577784949 17.133835913358904 L 41.958898707274585 18.163683081251385 L 41.97431824596552 19.12539580025275 L 42.090924567475255 20.026435134374736 L 42.33059858645466 20.883882021142327 L 42.698252827231556 21.721182201926545 L 43.18091092272888 22.564150099976253 L 43.7487630875148 23.436770977200073 L 44.358098172282084 24.357359642723797 Z"></path><path fill="none" stroke="#000" stroke-width="0.07777777777777778" d="M 45.52686545591281 25 L 45.52686545591281 25 L 46.10706446636752 26.05623356468966 L 46.57756029460009 27.164977436562737 L 46.88624023157284 28.307781689874993 L 46.992742566746315 29.45814962663824 L 46.87262625617871 30.584998410402356 L 46.51978497302814 31.65684957596205 L 45.94685015833574 32.64619718473574 L 45.18355923195823 33.53347197327196 L 44.27329798975047 34.310064225086776 L 43.26823302748686 34.979981187962636 L 42.22360662132469 35.55988301115822 L 41.1918547634048 36.07744383896799 L 40.217219120499784 36.56819691798503 L 39.33145503763849 37.07121805333197 L 38.55109921338003 37.62415605553574 L 37.87656946798619 38.25821240677608 L 37.29314842263253 38.9936929980552 L 36.77367955817702 39.836699046041225 L 36.2826047902486 40.77739810049764 L 35.78082103556572 41.79013395891212 L 35.230746956437635 42.83541780172146 L 34.6009798082215 43.86361779725253 L 33.8699865579768 44.819957899299936 L 33.02840449641295 45.65027364853484 L 32.07970766971795 46.306873502597256 L 31.039203874966347 46.75383106179401 L 29.93153678173096 46.97108997805165 L 28.787053061223336 46.95689327333649 L 27.637532498869344 46.728237364646915 L 26.51185316205214 46.319276336556925 L 25.43216500232288 45.7778374923128 L 24.411074039965538 45.16042720569879 L 23.45020474088118 44.52628083909653 L 22.540327410505956 43.931121314668786 L 21.663033167904224 43.42132470198099 L 20.793736994182332 43.029143915242024 L 19.90561487123722 42.7695188966687 L 18.973956131861343 42.63881802976783 L 17.98035269799166 42.61563269847753 L 16.916160664372242 42.66351119654813 L 15.78475539256787 42.735297351856794 L 14.602248680215036 42.77855914811508 L 13.396527721580636 42.741474233949624 L 12.20468701039713 42.57849600368968 L 11.069129924106921 42.25516039403104 L 10.032790875788065 41.75150463050558 L 9.13404971283287 41.063740976405995 L 8.401961954223584 40.20404003047415 L 7.852404290143728 39.19850364777291 L 7.485636572142383 38.083620002551 L 7.2856204124398865 36.90166735073738 L 7.221229362165577 35.695648200620866 L 7.2492608392999855 34.50437866542122 L 7.318942503772835 33.35832439022599 L 7.377441939005969 32.276669569984165 L 7.37576075278681 31.26594281254179 L 7.2743384261987 30.320323509124435 L 7.047714753749254 29.423539918799577 L 6.687700407853406 28.552071653658448 L 6.204671656303546 27.679209081339973 L 5.626818271497573 26.779419886373937 L 4.997408266833482 25.83244095097675 L 4.370361679955344 24.82655539775126 L 3.804621218712388 23.76062450592742 L 3.3579470659982107 22.644608258820096 L 3.0808299919765467 21.498505798981018 L 3.0112032274157734 20.349853222412094 L 3.1705409323260376 19.230105031620198 L 3.5617705193859344 18.170373417864724 L 4.169216564621095 17.19708765185365 L 4.9605603194915595 16.32815290928812 L 5.890568485886082 15.57013131885985 L 6.906144988568101 14.916844501797062 L 7.95211331456888 14.349621324930846 L 8.977061424914723 13.83920849821783 L 9.938584635935278 13.34915041353051 L 10.807343123363612 12.84025445571658 L 11.569499458451338 12.27561272595959 L 12.22729949361968 11.625569169832401 L 12.797782888323097 10.872013336250467 L 13.30983070303481 10.011450246336851 L 13.799950329839996 9.056432681435133 L 14.307339737876058 8.035131736914863 L 14.86884711782486 6.9890413136123755 L 15.514440353347387 5.969036046635097 L 16.263724422560863 5.030203015218145 L 17.123903997336093 4.226021011934822 L 18.089401096567926 3.6025482767718024 L 19.143127144242968 3.193289360408567 L 20.25920132055718 3.015342319646738 L 21.406728257640825 3.06728638971304 L 22.5541198217665 3.3290738470539054 L 23.67338349133403 3.763960884222616 L 24.743810998458102 4.322277843689594 L 25.754583657138728 4.94662673959056 L 26.705954494808203 5.577928734582297 L 27.60885374618242 6.161645688939579 L 28.482969989420805 6.653479732242314 L 29.353558355591417 7.023915413594395 L 30.24739478521302 7.2611031848866645 L 31.188410104302825 7.371774875246604 L 32.193585127067756 7.380108729652953 L 33.2696617756277 7.324696726901099 L 34.4111281794613 7.253982590100982 L 35.599779523769 7.220709900385337 L 36.805960101870724 7.276026187102996 L 37.99137972147096 7.46391873202159 L 39.113195585635985 7.816608208633177 L 40.128884204607246 8.351403782880936 L 41.0013178054366 9.069343178500876 L 41.70342032917746 9.955725482534499 L 42.221815119891204 10.98241925021845 L 42.558986194525104 12.111620807113644 L 42.73364500011931 13.30057224892441 L 42.77920483309826 14.506644913313375 L 42.740490572320425 15.692163835937533 L 42.66902496854613 16.828394702012936 L 42.617408561275795 17.89823058142956 L 42.63342683685097 18.89728636810955 L 42.75456095306473 19.833312837339992 L 43.003541455087074 20.724054175237058 L 43.385471619353794 21.593866515526475 L 43.8868712096548 22.46956664914489 L 44.476772933942314 23.37607117980504 L 45.10976834976256 24.332406076153834 Z"></path><path fill="none" stroke="#000" stroke-width="0.04999999999999999" d="M 46.21320343559643 25 L 46.21320343559643 25 L 46.81280202839386 26.091549877958247 L 47.29902939424927 27.237365802095823 L 47.618030379253725 28.418380953417653 L 47.72809373535908 29.607212688139075 L 47.603961205846645 30.771738881506653 L 47.23932229222264 31.879428551735842 L 46.64723078144088 32.9018560693962 L 45.85841839620031 33.81879785151681 L 44.91772158343244 34.621356306417695 L 43.879051185544355 35.31367266855125 L 42.79949656403099 35.912964137311654 L 41.7332469652251 36.44783017198241 L 40.72602332394713 36.95499211174341 L 39.81064275958198 37.47483230358554 L 39.00419489311638 38.04625838679408 L 38.30711151508514 38.70151509890055 L 37.70418315516204 39.46158728036664 L 37.16734528657365 40.332780148648176 L 36.659850901884084 41.30493249488519 L 36.14128946386876 42.35153027364548 L 35.572823062105925 43.431764313912424 L 34.92199896717253 44.49434328996338 L 34.16656416584868 45.48265965915881 L 33.29684289651772 46.3407379148053 L 32.316425363864724 47.01929189616814 L 31.241131197739726 47.481193965467625 L 30.096428055499878 47.70571716890895 L 28.91367728217793 47.691045781994816 L 27.725721254746944 47.454744515335236 L 26.562403610051607 47.03210943231506 L 25.446614907264347 46.47256699386759 L 24.39138266261124 45.834512925588 L 23.39838565777025 45.17916318835849 L 22.458085593342865 44.564103860599225 L 21.551458067520247 44.03726164599266 L 20.65309603467338 43.63196786986818 L 19.735278586600145 43.36366200759246 L 18.77246882817018 43.228591015641356 L 17.745643187292153 43.20463045768675 L 16.645868740375462 43.25410982519874 L 15.476633707854754 43.32829622836355 L 14.25458860277159 43.37300452963767 L 13.0085530579385 43.334679641199486 L 11.776861861663868 43.16625205728498 L 10.603336194243056 42.83210537130445 L 9.532346027358725 42.31160933180327 L 8.60355448017092 41.600849554994724 L 7.846988574409838 40.712403576771884 L 7.279055854591721 39.67324599599324 L 6.900024860683644 38.52108500853477 L 6.693320944038948 37.29961248960507 L 6.6267769092551525 36.05326878293468 L 6.6557456491891465 34.822167860531586 L 6.727757195587614 33.63779401932494 L 6.7882126227999855 32.51997289860074 L 6.786475224298648 31.475451397279663 L 6.681661732367992 30.498214288228453 L 6.447460651968381 29.571445767232184 L 6.0754088364769 28.670839016736824 L 5.576229495438358 27.768791338893436 L 4.979054956823838 26.83891671760936 L 4.328599946923969 25.860274515810424 L 3.6805873782436045 24.820756089612853 L 3.095930771911238 23.71918464388428 L 2.634321585097034 22.565853184769605 L 2.3479388015529743 21.381429547813358 L 2.27598399070461 20.194370528212303 L 2.440649324361228 19.037182343833802 L 2.844960096415093 17.9420174557504 L 3.4727167581128136 16.93618882596241 L 4.290519948551726 16.03820030911409 L 5.251623945304928 15.254833445777567 L 6.301157348350621 14.579703276394872 L 7.382098758245885 13.993514378236421 L 8.441317118808264 13.466035345821263 L 9.434989899839305 12.959591638278159 L 10.332796268269016 12.43368019291669 L 11.120436125931125 11.850159055347588 L 11.800230417755115 11.178380588842732 L 12.38978854266538 10.399628799769678 L 12.91895723067387 9.510291850847233 L 13.4254645380622 8.523342239259438 L 13.9498190605222 7.4678929914623495 L 14.530101047902383 6.386825401809848 L 15.197280392512907 5.332715153937784 L 15.971617586148987 4.36249122324169 L 16.860558196689 3.5314205236488014 L 17.858337737187885 2.8871013022865775 L 18.94729625658417 2.4641583707760937 L 20.10068758183151 2.2802614779674713 L 21.286583324971886 2.333942354278367 L 22.472339168812812 2.6044829588040166 L 23.629026631475014 3.053910915097571 L 24.735245041706786 3.630895806831493 L 25.779813979023732 4.2761204843149265 L 26.762994931104412 4.92853074528831 L 27.696083596901254 5.53176490825307 L 28.599426863509642 6.040043955511475 L 29.49912429465936 6.422865555097783 L 30.422847113442124 6.667983956427264 L 31.3953262989631 6.782356074625678 L 32.43411043734457 6.790968580480715 L 33.546166874174844 6.7337038173987125 L 34.725799443571645 6.660625276842424 L 35.95419463303449 6.626240078707649 L 37.20070516520963 6.683405925386175 L 38.425760573749045 6.8775808610552716 L 39.58508556639946 7.242062892324228 L 40.634734834463956 7.79473993584752 L 41.53633919769186 8.53668441277826 L 42.26191727977893 9.452703869210254 L 42.79764516180664 10.513726255054609 L 43.146089916519415 11.680683889071252 L 43.32658862845602 12.909389210122225 L 43.37367180379762 14.155788220372724 L 43.33366308977829 15.380946252240234 L 43.2598079561356 16.555168228003147 L 43.20646569838115 17.660775228814266 L 43.223019562349975 18.693235527824395 L 43.348203928942766 19.66055905588741 L 43.60550936372728 20.58108329520145 L 44.00020977671444 21.479978753204104 L 44.51837420539569 22.384958869282933 L 45.12799993277218 23.321773360783602 L 45.78216023593366 24.310084350222237 Z"></path></svg>